<svg xmlns="http://www.w3.org/2000/svg" width="135.000000pt" height="130.000000pt" viewBox="0 0 135.000000 130.000000" preserveAspectRatio="xMidYMid meet"><g transform="translate(0.000000,130.000000) scale(0.100000,-0.100000)" fill="#000000" stroke="none"><path d="M447 1266 c-141 -50 -319 -188 -386 -301 -40 -65 -64 -161 -55 -220 7 -50 33 -145 40 -145 2 0 41 18 85 40 l80 41 -8 37 c-4 20 -8 65 -8 99 1 53 6 69 31 105 59 84 192 165 286 175 73 7 124 -19 179 -92 l41 -55 -26 -34 c-14 -19 -72 -76 -128 -127 -271 -246 -317 -309 -326 -444 -7 -125 60 -244 172 -303 44 -23 63 -27 142 -27 87 0 94 2 177 43 146 72 263 209 308 359 7 24 14 43 17 43 2 0 24 -18 49 -40 25 -22 52 -40 60 -40 21 0 166 101 157 109 -5 4 -30 24 -56 45 -61 48 -101 100 -291 381 -85 127 -173 251 -196 277 -86 98 -204 123 -344 74z m435 -551 c45 -75 62 -141 55 -207 -17 -144 -160 -292 -304 -314 -83 -13 -172 57 -188 149 -12 66 28 129 163 255 65 60 137 135 161 165 51 64 45 66 113 -48z"></path></g></svg>